<svg width="65" height="34" viewBox="0 0 65 34" fill="none" xmlns="http://www.w3.org/2000/svg">
<rect x="1" y="1" width="63" height="32" rx="16" fill="#C66C3A" stroke="black" stroke-width="2"/>
<ellipse cx="49" cy="17" rx="16" ry="17" fill="black"/>
<path d="M48.5 28C45.8611 28 43.6181 26.9306 41.7708 24.7917C39.9236 22.6528 39 20.0556 39 17C39 13.9444 39.9236 11.3472 41.7708 9.20833C43.6181 7.06944 45.8611 6 48.5 6C48.7463 6 48.9884 6.01019 49.2262 6.03056C49.4641 6.05093 49.697 6.08148 49.925 6.12222C49.2037 6.71296 48.6274 7.48215 48.196 8.42978C47.7646 9.37741 47.5493 10.4008 47.55 11.5C47.55 13.3333 48.1042 14.8917 49.2125 16.175C50.3208 17.4583 51.6667 18.1 53.25 18.1C54.2176 18.1 55.106 17.8503 55.9153 17.3508C56.7245 16.8513 57.3843 16.1844 57.8944 15.35C57.9296 15.6148 57.956 15.8845 57.9736 16.1591C57.9912 16.4337 58 16.714 58 17C58 20.0556 57.0764 22.6528 55.2292 24.7917C53.3819 26.9306 51.1389 28 48.5 28Z" fill="#C66C3A"/>
</svg>
