<svg width="34" height="34" viewBox="0 0 34 34" fill="none" xmlns="http://www.w3.org/2000/svg">
<path d="M9.5 21.6667V22.1667H10H12.8333V32.3757C5.76116 30.6496 0.5 24.2766 0.5 16.6667C0.5 7.74281 7.74281 0.5 16.6667 0.5C25.5905 0.5 32.8333 7.74281 32.8333 16.6667C32.8333 24.8678 26.7322 31.6329 18.8333 32.6886V22.1667H23.3333H23.8333V21.6667V16.6667V16.1667H23.3333H18.8333V13.3333C18.8333 12.6928 19.3595 12.1667 20 12.1667H23.3333H23.8333V11.6667V6.66667V6.16667H23.3333H19.1667C15.6739 6.16667 12.8333 9.00719 12.8333 12.5V16.1667H10H9.5V16.6667V21.6667Z" fill="#FFCB32" stroke="black"/>
</svg>
