<svg width="34" height="41" viewBox="0 0 34 41" fill="none" xmlns="http://www.w3.org/2000/svg">
<path d="M16.6636 2.28882e-05C20.1094 2.28882e-05 22.9136 2.80419 22.9136 6.25002V16.175C25.2949 14.0417 29.2157 14.1354 31.499 16.4146C32.6697 17.5872 33.3272 19.1764 33.3272 20.8334C33.3272 22.4903 32.6697 24.0795 31.499 25.2521L16.6636 40.0875L1.82818 25.2521C0.657505 24.0795 -1.14441e-05 22.4903 -1.14441e-05 20.8334C-1.14441e-05 19.1764 0.657505 17.5872 1.82818 16.4146C4.10735 14.1334 8.03443 14.0396 10.4136 16.175V6.25002C10.4136 2.80419 13.2178 2.28882e-05 16.6636 2.28882e-05ZM18.7469 26.2209L18.7469 6.25002C18.7229 5.71361 18.493 5.20712 18.1049 4.83601C17.7168 4.46491 17.2006 4.2578 16.6636 4.2578C16.1266 4.2578 15.6104 4.46491 15.2223 4.83601C14.8342 5.20712 14.6043 5.71361 14.5803 6.25002L14.5803 26.2209L7.71985 19.3604C7.32325 18.9812 6.79566 18.7696 6.24693 18.7696C5.6982 18.7696 5.17061 18.9812 4.77401 19.3604C4.58038 19.5538 4.42676 19.7833 4.32194 20.0361C4.21713 20.2888 4.16318 20.5597 4.16318 20.8334C4.16318 21.107 4.21713 21.3779 4.32194 21.6306C4.42676 21.8834 4.58038 22.113 4.77401 22.3063L16.6636 34.1959L28.5532 22.3063C28.7468 22.113 28.9004 21.8834 29.0053 21.6306C29.1101 21.3779 29.164 21.107 29.164 20.8334C29.164 20.5597 29.1101 20.2888 29.0053 20.0361C28.9004 19.7833 28.7468 19.5538 28.5532 19.3604C28.1566 18.9812 27.629 18.7696 27.0803 18.7696C26.5315 18.7696 26.0039 18.9812 25.6074 19.3604L18.7469 26.2209Z" fill="#C66C3A"/>
</svg>
