<svg width="34" height="34" viewBox="0 0 34 34" fill="none" xmlns="http://www.w3.org/2000/svg">
<path d="M18.3848 1.00204L18.3805 1.00206L14.9538 1.00038L14.9519 1.00038C13.7456 0.997468 12.5393 1.01125 11.3334 1.04172C11.3332 1.04172 11.3331 1.04173 11.333 1.04173C11.3329 1.04173 11.3329 1.04173 11.3329 1.04173L11.0182 1.04984L9.84453 1.09928C9.84374 1.09932 9.84295 1.09936 9.84216 1.09939C8.16216 1.17846 7.0622 1.44007 6.112 1.80794L6.10386 1.81109L6.10385 1.81105C5.12833 2.17897 4.24491 2.75544 3.51529 3.50019L3.50768 3.50797L3.4999 3.51557C2.75435 4.24417 2.17756 5.12732 1.81011 6.10287L1.80689 6.11143L1.80685 6.11142C1.43887 7.06189 1.17723 8.16221 1.09824 9.84302C1.07822 10.2869 1.06179 10.6518 1.04866 11.0194L1.04864 11.0198L1.0372 11.337C1.00843 12.5411 0.996346 13.7455 1.00095 14.9499L1.00097 14.9537L1.00096 18.3804V18.3828C0.998031 19.5897 1.01181 20.7965 1.0423 22.003C1.0423 22.003 1.0423 22.0031 1.0423 22.0032C1.04231 22.0033 1.04231 22.0034 1.04231 22.0035L1.05048 22.3205C1.06508 22.711 1.08154 23.1014 1.09986 23.4918L18.3848 1.00204ZM18.3848 1.00204C19.5897 0.99742 20.7947 1.0095 21.9993 1.03829L22.3166 1.04973L22.3169 1.04975C22.6741 1.0625 23.0271 1.07837 23.4558 1.09764L23.4924 1.09928C23.4927 1.0993 23.4931 1.09932 23.4934 1.09933C25.1727 1.17834 26.2745 1.44003 27.2228 1.80775L27.2251 1.80866C28.2005 2.18405 29.0071 2.68245 29.8305 3.50582L29.8305 3.50585L29.8367 3.51195C30.5804 4.24283 31.156 5.12693 31.5234 6.10277L31.5234 6.10279L31.5269 6.11191C31.8945 7.05996 32.1563 8.16315 32.2353 9.84228C32.2553 10.2854 32.2717 10.65 32.2848 11.0169C32.2849 11.0177 32.2849 11.0186 32.2849 11.0194L32.2946 11.3314C32.2946 11.3326 32.2947 11.3338 32.2947 11.3349C32.324 12.5399 32.3367 13.7451 32.3326 14.9504L32.3326 14.9551L32.3343 16.1971V16.1984L32.3343 18.3804L32.3343 18.3838C32.3384 19.5896 32.3257 20.7954 32.2963 22.0009C32.2963 22.0021 32.2963 22.0032 32.2963 22.0043L32.2866 22.3164C32.2866 22.3172 32.2865 22.3181 32.2865 22.3189C32.2738 22.6752 32.2579 23.0276 32.2387 23.4553L32.2371 23.4918C32.237 23.4923 32.237 23.4929 32.237 23.4935C32.158 25.1706 31.8935 26.273 31.5264 27.2235L31.5264 27.2234L31.5229 27.2327C31.1569 28.2089 30.5816 29.0931 29.8374 29.8232L29.831 29.8294L29.8247 29.8358C29.0931 30.5796 28.2083 31.1552 27.2319 31.5229L27.2319 31.5228L27.2228 31.5264C26.2746 31.894 25.173 32.1557 23.4941 32.2347C23.4935 32.2348 23.4929 32.2348 23.4924 32.2348L23.4559 32.2365C23.0282 32.2557 22.6759 32.2715 22.3196 32.2843C22.3187 32.2843 22.3178 32.2843 22.3169 32.2844L22.0049 32.294C22.0037 32.294 22.0025 32.2941 22.0013 32.2941C20.7959 32.3234 19.5901 32.3361 18.3843 32.3321L18.3796 32.3321L17.1376 32.3337H17.1363L14.956 32.3337L14.9526 32.3337C13.7467 32.3378 12.5409 32.3251 11.3354 32.2958C11.3342 32.2957 11.3331 32.2957 11.332 32.2957M18.3848 1.00204L11.332 32.2957M9.79763 33.2354C10.1931 33.2544 10.5886 33.271 10.9843 33.2854L11.3076 33.2954L9.79763 33.2354ZM9.79763 33.2354C8.02429 33.1521 6.81429 32.8687 5.75096 32.4587C4.63877 32.041 3.63136 31.3851 2.79929 30.5371L9.79763 33.2354ZM11.332 32.2957L11.0205 32.286C11.0196 32.286 11.0187 32.286 11.0178 32.2859C10.627 32.2718 10.2362 32.2553 9.84559 32.2365L9.84457 32.2365C8.16659 32.1576 7.06355 31.8931 6.11072 31.5257L6.11074 31.5256L6.10259 31.5226C5.12686 31.1561 4.24306 30.5807 3.51309 29.8367L3.50656 29.83L3.4999 29.8235C2.75542 29.0925 2.17936 28.208 1.81188 27.2315L1.81193 27.2315L1.80832 27.2222C1.44054 26.2737 1.17881 25.1717 1.09986 23.4918L11.332 32.2957ZM13.0697 25.3282L13.4426 24.4003L13.0697 25.3282C14.2152 25.7884 15.4405 26.0169 16.6748 26.0004C19.1475 25.9985 21.5186 25.0154 23.2673 23.2667C25.0176 21.5164 26.001 19.1424 26.001 16.6671C26.001 14.1917 25.0176 11.8177 23.2673 10.0674C21.5183 8.31835 19.147 7.33725 16.6747 7.33539C15.4404 7.31887 14.2151 7.54734 13.0697 8.00761C11.9221 8.46876 10.8776 9.15339 9.99695 10.0217C9.11625 10.89 8.41692 11.9248 7.93959 13.0657C7.46226 14.2067 7.21645 15.4311 7.21645 16.6679C7.21645 17.9047 7.46226 19.1291 7.93959 20.2701C8.41692 21.411 9.11625 22.4457 9.99695 23.3141C10.8776 24.1824 11.9221 24.867 13.0697 25.3282ZM13.8409 13.8386C14.5402 13.1392 15.4719 12.7256 16.4546 12.6728L16.6861 12.6685C17.2174 12.6588 17.7454 12.7549 18.2391 12.9515C18.7329 13.148 19.1825 13.441 19.5618 13.8133C19.941 14.1855 20.2423 14.6297 20.448 15.1197C20.6537 15.6097 20.7597 16.1358 20.7597 16.6672C20.7598 17.1986 20.654 17.7248 20.4485 18.2148C20.243 18.7049 19.9418 19.1491 19.5627 19.5215C19.1836 19.8939 18.734 20.187 18.2404 20.3838C17.7467 20.5805 17.2187 20.6768 16.6874 20.6672L16.6783 20.6671H16.6693C15.6084 20.6671 14.591 20.2456 13.8409 19.4955C13.0907 18.7453 12.6693 17.7279 12.6693 16.6671C12.6693 15.6062 13.0907 14.5888 13.8409 13.8386ZM25.3776 10.9979L25.3976 10.9987H25.4176C26.2354 10.9987 27.0196 10.6739 27.5979 10.0956C28.1761 9.51739 28.501 8.73313 28.501 7.91538C28.501 7.09764 28.1761 6.31338 27.5979 5.73514C27.0196 5.1569 26.2354 4.83205 25.4176 4.83205H24.4176V5.03029C23.9901 5.19075 23.5996 5.44563 23.2775 5.78085C22.7258 6.35514 22.4176 7.12065 22.4176 7.91705C22.4176 8.71345 22.7258 9.47896 23.2775 10.0533C23.8293 10.6275 24.5819 10.9661 25.3776 10.9979Z" fill="#C66C3A" stroke="black" stroke-width="2"/>
</svg>
