<svg width="33" height="33" viewBox="0 0 33 33" fill="none" xmlns="http://www.w3.org/2000/svg">
<path d="M32.3914 9.71334L32.3916 9.71723C32.5031 11.6986 32.5009 13.6674 32.4988 15.6652C32.4985 15.9429 32.4982 16.2211 32.4982 16.5C32.4982 16.8123 32.4986 17.1238 32.4991 17.4345C32.502 19.3987 32.5048 21.334 32.3917 23.2819L32.3914 23.2867C32.2665 25.8658 31.6875 28.0629 29.8749 29.8755C28.0664 31.684 25.8651 32.2671 23.2862 32.392L23.2823 32.3922C21.3009 32.5037 19.3322 32.5016 17.3343 32.4994C17.0567 32.4991 16.7785 32.4988 16.4997 32.4988C16.2214 32.4988 15.9438 32.4991 15.6666 32.4994C13.6714 32.5016 11.7021 32.5037 9.71701 32.3922L9.71316 32.392C7.13406 32.2671 4.93702 31.6881 3.12448 29.8755C1.31596 28.0669 0.732877 25.8656 0.607978 23.2867L0.607759 23.2828C0.496277 21.3012 0.498435 19.3292 0.50062 17.3332C0.500924 17.056 0.501228 16.7783 0.501228 16.5C0.501228 16.2217 0.500924 15.944 0.50062 15.6668C0.498435 13.6717 0.496279 11.7023 0.607762 9.71718L0.607776 9.71718L0.607963 9.71334C0.732888 7.13418 1.31193 4.9371 3.12448 3.12452C4.933 1.31597 7.13428 0.732882 9.71316 0.607965L9.71316 0.60798L9.71706 0.607761C11.6985 0.496282 13.6672 0.498435 15.665 0.50062C15.9427 0.500924 16.2208 0.501228 16.4997 0.501228C16.778 0.501228 17.0557 0.500924 17.3328 0.50062C19.328 0.498435 21.2973 0.496278 23.2824 0.607764L23.2824 0.607778L23.2862 0.607965C25.8653 0.732892 28.0624 1.31195 29.8749 3.12452C31.6834 4.93308 32.2665 7.1344 32.3914 9.71334ZM11.4933 16.5C11.4933 13.7463 13.742 11.4977 16.4956 11.4977C19.2492 11.4977 21.4978 13.7463 21.4978 16.5C21.4978 19.2537 19.2492 21.5023 16.4956 21.5023C13.742 21.5023 11.4933 19.2537 11.4933 16.5ZM7.52963 16.5C7.52963 21.4612 11.5345 25.4661 16.4956 25.4661C21.4567 25.4661 25.4615 21.4612 25.4615 16.5C25.4615 11.5388 21.4567 7.5339 16.4956 7.5339C11.5345 7.5339 7.52963 11.5388 7.52963 16.5ZM22.8311 7.68717C22.8311 9.05696 23.9379 10.164 25.3076 10.1644L27.2854 7.68717H27.7854C27.7854 7.68696 27.7854 7.68675 27.7854 7.68654C27.7851 6.31683 26.678 5.20996 25.3082 5.20996C23.9382 5.20996 22.8311 6.31717 22.8311 7.68717Z" fill="#C66C3A" stroke="black"/>
</svg>
